<?xml version="1.0" encoding="utf-8"?>
<!-- Generator: Adobe Illustrator 16.0.0, SVG Export Plug-In . SVG Version: 6.00 Build 0)  -->
<!DOCTYPE svg PUBLIC "-//W3C//DTD SVG 1.1//EN" "http://www.w3.org/Graphics/SVG/1.1/DTD/svg11.dtd">
<svg version="1.1" id="Layer_1" xmlns="http://www.w3.org/2000/svg" xmlns:xlink="http://www.w3.org/1999/xlink" x="0px" y="0px"
	 width="100px" height="100px" viewBox="0 0 100 100" enable-background="new 0 0 100 100" xml:space="preserve">
<g>
	<g>
		<path d="M13.882,63.835c-0.945,4.144,0.078,9.08,5.147,9.565c6.332,0.605,8.05-5.277,10.111-10.031
			c3.008-6.938,5.019-14.626,6.724-21.979c1.919-8.274,4.21-16.723,5.335-25.141c-1.637,0.222-3.274,0.443-4.911,0.665
			c4.371,12.629,6.969,25.605,12.377,37.972c0.737,1.688,3.546,1.583,4.317,0c5.652-11.593,9.408-23.733,13.332-35.971
			c-1.607-0.443-3.215-0.886-4.822-1.329c-0.205,0.682-0.422,1.359-0.637,2.038c1.607,0.443,3.215,0.886,4.822,1.329
			c0.182-0.597,0.371-1.193,0.557-1.789c-1.637-0.222-3.273-0.443-4.91-0.665c0.053,8.32,1.879,16.578,3.367,24.799
			c1.445,7.981,3.232,15.932,5.904,23.603c1.637,4.699,4.879,9.031,10.371,8.135c4.797-0.784,6.51-5.772,4.871-10.076
			c-1.135-2.982-5.971-1.689-4.822,1.33c0.875,1.318,0.846,2.433-0.088,3.343c-0.996,1.515,1.123,0.166-0.305,0.421
			c-2.561,0.456-3.594-1.107-4.643-3.127c-1.938-3.728-2.857-8.641-3.922-12.665C69.063,42.916,66.4,30.185,66.324,18.5
			c-0.02-2.871-4.076-3.341-4.912-0.665c-0.186,0.596-0.373,1.192-0.557,1.789c-0.947,3.095,3.854,4.389,4.822,1.329
			c0.215-0.678,0.432-1.356,0.637-2.038c0.934-3.102-3.842-4.383-4.822-1.329c-3.791,11.826-7.363,23.571-12.827,34.777
			c1.438,0,2.878,0,4.317,0c-5.227-11.953-7.647-24.569-11.873-36.778c-0.975-2.817-4.545-2.069-4.911,0.665
			c-0.663,4.958-2.17,9.727-3.248,14.599c-1.08,4.882-1.931,9.792-3.288,14.612c-1.213,4.308-2.46,8.621-3.902,12.858
			c-0.662,1.945-1.506,3.822-2.296,5.718c-0.334,0.925-0.73,1.821-1.19,2.688c-2.044,2.811-3.235,2.29-3.571-1.56
			C19.419,62.025,14.599,60.692,13.882,63.835L13.882,63.835z"/>
	</g>
</g>
</svg>
